<?xml version="1.0" standalone="no"?>
<!DOCTYPE svg PUBLIC "-//W3C//DTD SVG 20010904//EN"
 "http://www.w3.org/TR/2001/REC-SVG-20010904/DTD/svg10.dtd">
<svg version="1.0" xmlns="http://www.w3.org/2000/svg"
 width="669.000000pt" height="669.000000pt" viewBox="0 0 669.000000 669.000000"
 preserveAspectRatio="xMidYMid meet">
<metadata>
Created by potrace 1.14, written by Peter Selinger 2001-2017
</metadata>
<g transform="translate(0.000000,669.000000) scale(0.100000,-0.100000)"
fill="#000000" stroke="none">
<path d="M4562 6268 c-6 -95 -16 -155 -33 -213 -12 -38 -21 -71 -20 -73 1 -1
-10 -25 -24 -52 -14 -28 -23 -50 -21 -50 2 0 -7 -37 -21 -82 -14 -45 -26 -90
-28 -100 -2 -10 -7 -23 -10 -29 -5 -6 0 -6 11 1 11 7 44 50 74 96 43 67 56 80
61 66 15 -39 -3 -125 -39 -190 -24 -43 -167 -194 -254 -269 -34 -29 -35 -32
-20 -46 9 -8 28 -20 41 -27 14 -7 30 -17 35 -22 6 -5 33 -24 60 -43 42 -29 51
-32 63 -19 22 22 33 17 33 -16 0 -16 4 -30 8 -30 4 0 22 24 40 54 36 58 77 99
160 160 29 21 51 40 49 42 -2 2 -22 -2 -45 -10 -47 -17 -47 -24 3 79 27 54 29
68 26 140 -3 92 -4 190 0 255 1 25 -1 56 -4 70 -26 117 -141 362 -145 308z
m53 -790 c-3 -24 -7 -51 -9 -62 -1 -10 -11 -23 -21 -29 -14 -8 -17 -7 -13 4 3
8 14 40 24 72 10 31 19 57 21 57 3 0 1 -19 -2 -42z"/>
<path d="M3801 6168 c6 -18 13 -40 16 -48 4 -8 7 -19 8 -25 1 -5 3 -12 4 -15
5 -10 11 -67 15 -149 2 -46 8 -107 12 -135 4 -28 8 -69 10 -91 1 -22 3 -44 3
-50 4 -32 43 101 46 157 2 42 11 42 31 1 31 -66 24 -172 -20 -278 -20 -50 -22
-61 -10 -68 24 -13 104 -35 104 -29 0 4 4 2 8 -3 8 -12 50 -33 74 -37 11 -2
30 24 67 95 28 53 48 97 44 97 -4 0 -19 -11 -33 -25 l-26 -25 -1 72 c-1 91 0
87 -50 178 -22 41 -44 91 -48 110 -9 46 -44 104 -97 162 -47 51 -147 138 -159
138 -5 0 -3 -15 2 -32z m308 -662 c-6 -6 -9 -6 -9 0 0 5 -3 34 -5 64 l-5 55
14 -55 c9 -34 11 -59 5 -64z"/>
<path d="M3628 6149 c-10 -5 -18 -7 -18 -4 0 4 -13 -3 -29 -14 -16 -12 -32
-21 -36 -21 -18 0 -180 -118 -248 -180 -178 -165 -317 -408 -352 -615 -41
-244 -33 -396 27 -515 13 -25 25 -47 28 -50 3 -3 22 -29 42 -58 37 -54 62 -83
172 -202 34 -36 84 -90 112 -120 136 -147 234 -313 276 -465 28 -105 31 -325
4 -425 -9 -36 -19 -75 -22 -87 -10 -48 -67 -192 -113 -283 -72 -144 -118 -221
-204 -338 -21 -30 -37 -56 -34 -58 3 -3 20 1 38 9 19 8 39 15 44 17 76 23 224
107 330 186 108 80 166 140 284 289 23 29 90 163 84 169 -3 3 0 6 7 6 7 0 11
3 7 6 -3 4 0 19 8 35 34 65 69 262 68 379 -1 78 -12 193 -23 250 -6 30 -13 70
-15 88 -17 133 -109 368 -193 494 -15 23 -34 51 -42 64 -8 12 -57 76 -108 141
-51 66 -111 148 -132 184 -38 61 -117 229 -125 266 -2 10 -15 63 -29 118 -58
229 -12 412 165 663 58 80 62 92 27 71z"/>
<path d="M5351 5917 c-52 -94 -105 -164 -180 -237 -32 -30 -76 -80 -99 -110
-22 -30 -59 -75 -81 -99 -22 -25 -38 -47 -36 -50 8 -7 110 49 166 91 56 43 59
44 59 23 0 -30 -43 -106 -84 -146 -70 -71 -109 -91 -336 -175 -52 -19 -120
-45 -150 -57 -30 -12 -57 -22 -60 -22 -3 0 -11 -4 -18 -9 -9 -6 6 -27 55 -79
38 -40 84 -93 102 -119 31 -43 61 -62 61 -39 0 5 14 11 31 13 26 4 30 2 26
-14 -7 -25 -3 -23 64 21 50 33 135 64 177 64 7 0 11 5 9 11 -2 5 -22 11 -46
12 -23 1 -44 4 -46 6 -5 5 143 188 152 188 3 0 1 -6 -5 -12 -17 -22 -83 -150
-79 -154 7 -8 95 57 149 110 58 57 63 68 111 222 14 45 40 102 57 126 19 27
37 70 45 108 13 63 17 334 5 380 -5 22 -10 17 -49 -53z m-478 -872 c-16 -32
-33 -46 -33 -26 0 9 39 61 46 61 2 0 -4 -16 -13 -35z"/>
<path d="M4411 5807 c-24 -40 -46 -66 -112 -134 -28 -28 -52 -57 -53 -65 -2
-7 -9 -26 -15 -43 -27 -63 -40 -105 -33 -105 16 0 90 77 107 110 10 19 21 37
25 40 4 3 27 46 51 95 24 50 46 92 49 95 7 7 12 40 6 40 -2 0 -14 -15 -25 -33z"/>
<path d="M3837 5793 c-4 -7 -12 -40 -23 -88 -1 -5 -11 -35 -22 -65 -24 -63
-33 -113 -23 -127 13 -19 41 -22 50 -5 10 19 19 97 25 215 3 74 2 86 -7 70z"/>
<path d="M2641 5669 c-34 -33 -81 -86 -104 -117 -23 -32 -46 -60 -52 -64 -5
-4 -6 -8 -2 -8 5 0 0 -12 -11 -27 -48 -69 -106 -232 -118 -332 -14 -111 -6
-230 21 -336 8 -33 17 -68 20 -77 12 -53 86 -169 145 -228 104 -105 115 -113
315 -248 169 -113 238 -167 306 -238 154 -163 238 -364 248 -591 5 -130 91
142 91 289 0 40 -22 175 -34 213 -2 6 -5 15 -6 20 -1 6 -11 27 -21 48 -11 20
-16 37 -12 37 5 0 3 4 -2 8 -6 4 -17 20 -25 36 -31 60 -129 181 -311 380 -26
28 -75 85 -109 126 -35 41 -67 77 -71 78 -5 2 -9 9 -9 17 0 7 -6 18 -14 24
-49 41 -185 286 -199 358 -2 10 -7 25 -10 33 -28 71 -43 343 -25 457 5 32 20
89 33 127 14 39 23 71 21 73 -1 1 -30 -25 -65 -58z"/>
<path d="M5030 5571 c-38 -28 -128 -74 -195 -101 -45 -18 -75 -40 -120 -88
-85 -90 -86 -95 -21 -72 30 10 65 24 78 31 32 17 204 154 258 206 46 43 46 57
0 24z"/>
<path d="M3507 5447 c-9 -25 10 -52 39 -53 16 -1 45 -3 64 -4 32 -2 166 -23
218 -35 12 -3 31 -7 41 -9 33 -7 159 -55 217 -81 74 -34 198 -110 266 -163
l58 -45 -29 -31 c-16 -17 -47 -51 -70 -74 l-40 -44 -43 34 c-24 19 -61 45 -83
58 -22 13 -42 27 -45 30 -9 10 -185 89 -211 94 -13 2 -46 11 -74 20 -46 14
-91 23 -122 25 -7 1 -12 7 -10 14 3 15 -71 23 -85 9 -6 -6 -4 -21 6 -39 13
-27 23 -31 88 -42 78 -13 241 -58 221 -62 -24 -3 -28 -5 -48 -17 -19 -11 -17
-14 34 -64 30 -29 54 -54 53 -56 -1 -1 5 -13 14 -27 13 -20 21 -23 45 -18 22
4 33 1 44 -13 7 -10 11 -22 9 -26 -2 -3 10 -17 28 -29 46 -32 50 -41 28 -63
-19 -19 -20 -19 -77 21 -84 59 -243 134 -243 115 0 -19 57 -74 102 -97 68 -35
78 -43 72 -60 -3 -7 10 -26 30 -41 l35 -29 -25 -26 c-22 -23 -24 -30 -14 -49
12 -22 13 -22 61 26 27 27 49 43 49 36 0 -6 14 -24 30 -39 35 -31 40 -58 10
-50 -29 8 -24 -9 10 -35 33 -24 38 -38 15 -38 -23 0 -18 -18 11 -43 15 -12 37
-33 50 -46 21 -23 24 -23 30 -7 5 14 9 15 15 4 12 -18 11 -81 0 -74 -10 7 -21
-17 -21 -45 0 -12 -5 -17 -11 -14 -5 4 -9 17 -8 28 4 31 -18 67 -41 67 -15 0
-20 -7 -20 -26 0 -14 -4 -23 -10 -19 -5 3 -7 12 -4 20 4 9 -1 18 -12 22 -11 3
-31 20 -46 36 -16 17 -28 27 -28 23 0 -5 11 -49 25 -100 25 -92 33 -131 40
-176 2 -14 10 -70 18 -125 8 -55 14 -111 13 -125 -1 -14 -1 -28 1 -32 4 -7 47
34 55 50 2 4 17 15 33 24 17 9 33 23 36 30 3 7 11 23 17 35 9 17 9 24 0 29 -7
4 -14 2 -16 -4 -7 -21 -32 -13 -44 13 -6 14 -9 27 -7 29 2 2 25 6 52 9 l47 6
0 -48 c0 -39 -6 -80 -24 -176 -5 -26 -29 -91 -37 -99 -5 -6 -9 -17 -9 -26 0
-10 -9 -28 -21 -41 -12 -13 -28 -41 -36 -62 -10 -25 -26 -42 -49 -53 -19 -9
-34 -24 -34 -33 -1 -31 -59 -183 -99 -257 -23 -42 -67 -109 -98 -150 -32 -42
-57 -80 -55 -85 1 -5 -4 -9 -11 -9 -7 0 -31 -19 -52 -41 -37 -38 -38 -41 -15
-36 57 12 75 17 117 33 37 14 49 15 82 4 35 -11 40 -10 92 21 92 56 120 81
150 134 15 28 44 66 63 84 l35 34 38 -33 c21 -18 59 -52 86 -76 l47 -42 -49
-47 c-48 -45 -174 -140 -236 -178 -33 -20 -154 -79 -170 -82 -5 -2 -35 -13
-65 -25 -30 -12 -57 -22 -60 -22 -3 0 -9 -2 -15 -4 -35 -12 -154 -35 -207 -40
-35 -3 -67 -7 -73 -7 -5 -1 -13 24 -18 56 -5 31 -12 57 -16 57 -23 -1 -35 -23
-36 -67 l0 -47 -90 -1 c-72 0 -98 -4 -130 -21 l-39 -22 64 -8 c120 -17 339 -8
448 17 26 6 60 13 77 16 54 9 219 73 304 119 357 190 615 526 702 917 47 214
44 440 -11 650 -16 61 -36 130 -45 152 -10 22 -17 41 -16 43 1 1 -20 44 -45
95 -115 228 -279 415 -484 551 -81 54 -172 107 -190 111 -3 1 -23 9 -45 19
-56 24 -175 66 -205 72 -14 3 -52 11 -85 19 -56 12 -110 19 -227 29 -30 3 -48
0 -51 -7z m984 -466 c129 -133 241 -309 304 -476 33 -89 72 -244 79 -316 l6
-55 -63 -3 c-160 -8 -150 -9 -153 24 -10 114 -46 247 -99 360 -60 130 -109
203 -212 315 l-42 46 66 72 c36 40 68 72 71 72 2 0 22 -18 43 -39z m-263 -121
c3 -7 -6 -4 -18 8 -13 12 -27 22 -31 22 -4 0 -10 7 -13 16 -5 12 2 10 26 -8
17 -14 34 -31 36 -38z m7 -146 c22 -10 60 -35 84 -56 41 -36 45 -37 62 -22 10
9 15 22 12 30 -3 8 0 14 5 14 12 0 64 -84 110 -175 48 -97 92 -256 96 -348 l1
-38 -97 -4 c-54 -3 -98 -3 -98 -2 0 2 -4 28 -10 58 -5 30 -12 68 -15 86 -3 17
-14 52 -25 77 -10 25 -17 46 -15 46 3 0 -9 23 -25 50 -17 28 -30 53 -30 56 0
6 -55 87 -72 106 -7 8 -28 30 -47 50 l-34 37 24 29 c13 16 26 28 29 27 3 -1
23 -11 45 -21z m-185 -36 c0 -6 -6 -5 -15 2 -8 7 -15 14 -15 16 0 2 7 1 15 -2
8 -4 15 -11 15 -16z m173 -192 c4 -10 1 -13 -8 -9 -8 3 -12 9 -9 14 7 12 11
11 17 -5z m76 -296 c5 0 12 17 17 38 l7 37 13 -65 c20 -100 23 -95 -51 -98
-70 -4 -79 4 -50 44 8 12 12 24 9 27 -10 9 6 47 19 44 6 -1 14 9 16 23 5 20 6
18 9 -12 2 -21 7 -38 11 -38z m584 -200 c-3 -147 -12 -204 -55 -355 -22 -76
-33 -103 -85 -210 -46 -95 -66 -127 -130 -212 l-55 -73 -31 26 c-82 69 -137
119 -137 125 0 3 10 18 23 32 61 71 132 190 168 278 32 80 78 244 75 265 -2
11 -1 24 3 29 3 6 7 44 8 85 2 41 5 80 7 85 2 6 47 10 107 10 l104 0 -2 -85z
m-272 55 c2 -38 -5 -123 -16 -197 -13 -93 -112 -348 -134 -348 -5 0 -15 16
-21 35 -10 30 -14 34 -31 25 -12 -7 -19 -21 -19 -40 0 -16 -5 -41 -12 -55 -8
-18 -8 -29 -2 -33 24 -16 21 -40 -7 -71 -25 -28 -31 -30 -43 -18 -9 9 -11 19
-6 28 12 19 -16 49 -41 44 -11 -2 -22 2 -25 9 -8 21 32 169 64 231 51 100 83
225 95 370 2 28 5 30 47 35 25 3 69 5 98 5 45 1 52 -2 53 -20z m-311 -756 c0
-5 -4 -9 -10 -9 -5 0 -10 7 -10 16 0 8 5 12 10 9 6 -3 10 -10 10 -16z"/>
<path d="M5885 5223 c-82 -72 -216 -150 -315 -182 -19 -6 -70 -31 -112 -55
-42 -24 -102 -56 -132 -70 -31 -15 -56 -28 -56 -30 0 -10 161 10 228 28 28 8
52 10 52 5 0 -4 -19 -27 -42 -50 -45 -45 -124 -85 -186 -95 -45 -7 -268 -8
-414 -1 -60 3 -108 3 -108 0 0 -3 15 -35 34 -72 44 -86 76 -158 76 -170 0 -24
24 -20 78 13 64 40 101 49 56 14 -16 -13 -45 -41 -66 -62 -38 -40 -42 -69 -17
-117 5 -9 5 -19 2 -23 -3 -3 -2 -6 3 -7 5 0 20 -2 34 -5 14 -2 39 -6 55 -9 17
-3 68 -8 115 -10 92 -6 90 -3 -30 37 -41 14 -100 35 -130 46 -45 17 -50 21
-27 22 28 0 96 26 107 41 3 3 55 32 115 64 61 32 114 62 120 66 5 5 13 9 18 9
5 0 -27 -29 -72 -65 -45 -36 -81 -68 -81 -71 0 -6 45 3 120 25 133 39 167 61
232 149 54 72 158 169 158 146 0 -10 36 32 71 83 59 85 168 343 157 372 -2 5
-21 -7 -43 -26z"/>
<path d="M1406 4985 c34 -73 53 -168 47 -235 -14 -164 -10 -216 22 -358 8 -34
54 -130 93 -192 48 -77 124 -147 260 -238 136 -91 165 -105 168 -82 1 6 2 11
3 13 1 1 3 46 6 101 6 125 21 218 60 366 10 36 20 81 23 100 8 49 7 229 0 263
-9 39 -49 123 -86 182 l-32 50 3 -70 c4 -75 -7 -132 -28 -154 -11 -11 -24 -3
-82 56 -92 93 -108 105 -215 160 -99 51 -209 93 -245 93 l-22 0 25 -55z"/>
<path d="M5355 4992 c-2 -2 -59 -5 -127 -7 -119 -2 -125 -4 -203 -40 -44 -21
-83 -38 -87 -37 -5 1 -8 -3 -8 -9 0 -6 9 -9 20 -6 11 3 22 2 24 -2 5 -7 99 -6
131 2 11 3 56 14 100 25 44 11 105 28 135 38 30 10 57 18 60 19 3 1 16 7 30
12 22 10 19 11 -23 10 -26 -1 -50 -3 -52 -5z"/>
<path d="M2279 4564 c-23 -58 -68 -257 -77 -343 -14 -131 -6 -431 11 -431 5 0
6 -4 2 -10 -3 -5 4 -46 15 -92 51 -203 116 -360 193 -464 154 -209 434 -433
619 -496 l47 -16 24 31 c43 56 116 200 143 282 27 82 30 97 42 220 8 83 -4
234 -21 263 -5 6 -6 12 -3 12 9 0 -44 139 -72 189 -36 66 -73 123 -89 139 -7
7 -13 16 -13 20 0 12 -123 136 -168 172 -51 39 -111 80 -117 80 -3 0 -34 18
-70 40 -36 22 -68 40 -71 40 -3 0 -32 18 -65 41 -83 56 -184 160 -248 254 -71
105 -68 103 -82 69z"/>
<path d="M5652 4349 c-21 -16 -132 -33 -242 -35 -69 -1 -150 -5 -180 -9 -30
-3 -77 -6 -105 -6 -43 -1 -47 -3 -32 -14 19 -14 112 -39 182 -51 l40 -6 -40
-20 c-53 -28 -155 -34 -218 -15 -58 18 -60 16 -54 -73 4 -51 8 -65 23 -71 17
-7 17 -8 2 -8 -13 -1 -18 -9 -18 -30 0 -36 16 -47 60 -45 53 4 59 6 140 50 41
23 91 45 110 50 19 4 38 9 43 10 4 1 15 2 25 3 35 2 146 85 234 175 49 48 88
92 88 96 0 9 -47 8 -58 -1z"/>
<path d="M5343 4000 c-18 -11 -33 -17 -33 -14 0 15 -71 -67 -90 -105 -28 -53
-37 -169 -14 -178 45 -17 171 93 190 165 38 151 26 180 -53 132z"/>
<path d="M1508 3922 c39 -40 60 -88 45 -103 -4 -4 -30 -10 -58 -13 -135 -16
-345 -64 -445 -103 -8 -4 -17 -7 -20 -7 -31 -6 -170 -72 -167 -80 2 -5 32 -15
66 -22 128 -26 252 -78 331 -139 176 -135 305 -208 460 -259 106 -35 250 -45
360 -25 41 7 80 14 85 15 21 4 55 17 55 21 0 2 -14 24 -30 48 -48 69 -123 203
-167 297 -115 242 -239 359 -418 393 -16 3 -54 9 -84 12 l-53 6 40 -41z"/>
<path d="M5096 3858 c-32 -36 -66 -117 -81 -191 -7 -31 15 -136 40 -192 28
-64 36 -66 123 -34 31 11 63 21 70 22 6 0 12 4 12 9 0 4 7 8 15 8 14 0 110 89
141 132 31 40 72 146 71 179 0 12 -36 -9 -118 -68 -122 -89 -158 -120 -211
-184 -38 -46 -52 -50 -36 -11 10 22 21 372 12 372 -1 0 -19 -19 -38 -42z"/>
<path d="M4180 3755 c-16 -101 -18 -135 -10 -130 8 5 15 28 24 80 2 11 0 29
-5 40 -4 11 -8 16 -9 10z"/>
<path d="M4969 3568 c-78 -78 -105 -214 -67 -337 l20 -64 71 6 c40 4 88 9 107
13 115 20 269 161 296 270 7 28 6 28 -12 13 -10 -9 -59 -33 -108 -54 -123 -50
-204 -95 -251 -138 -11 -10 -32 -27 -46 -38 l-27 -19 15 43 c21 60 23 71 28
182 3 55 8 112 10 128 3 15 3 27 1 27 -3 0 -19 -15 -37 -32z"/>
<path d="M4828 3262 c-36 -23 -65 -58 -91 -107 -17 -31 -22 -58 -22 -122 0
-45 4 -85 8 -90 15 -14 180 -13 235 1 70 19 137 60 192 116 60 63 68 74 76
105 7 27 7 27 -19 11 -14 -9 -36 -19 -48 -21 -61 -11 -240 -76 -287 -104 -29
-17 -56 -31 -59 -31 -4 0 -18 -10 -32 -22 l-24 -23 20 35 c12 19 29 60 38 90
17 57 44 173 41 177 -1 1 -14 -6 -28 -15z"/>
<path d="M2018 3085 c-1 -1 -29 -5 -61 -8 -31 -4 -61 -8 -65 -11 -5 -3 -23 -8
-41 -11 -17 -3 -50 -13 -73 -22 l-41 -16 39 -16 c67 -28 125 -61 130 -76 3 -7
-15 -35 -43 -63 -26 -27 -57 -67 -68 -88 -56 -109 -201 -270 -281 -313 l-39
-21 35 5 c19 3 58 10 85 16 33 7 99 8 190 3 197 -10 326 -7 425 12 47 9 90 17
95 18 6 1 39 12 75 26 124 46 230 120 285 200 29 41 29 42 10 56 -11 8 -67 61
-125 117 -101 97 -192 159 -251 171 -13 2 -43 9 -67 14 -39 9 -206 15 -214 7z"/>
<path d="M4632 2979 c-49 -24 -110 -92 -118 -129 -3 -14 -9 -34 -13 -45 -11
-30 2 -68 24 -72 88 -18 193 -22 245 -10 14 3 25 6 25 7 0 1 8 3 17 5 32 6
133 73 176 116 44 45 56 77 25 64 -30 -12 -107 -26 -120 -21 -7 3 -14 2 -17
-2 -3 -4 -21 -9 -41 -10 -50 -4 -188 -48 -243 -79 l-45 -26 34 44 c36 46 104
167 97 174 -2 3 -23 -5 -46 -16z"/>
<path d="M4293 2753 c-46 -16 -108 -71 -119 -105 -9 -28 20 -49 110 -79 77
-26 90 -28 151 -29 97 -2 238 53 282 110 10 13 1 16 -65 20 -125 7 -315 6
-347 -3 -23 -7 -17 0 25 28 30 21 64 46 75 56 19 19 19 19 -25 18 -25 0 -64
-7 -87 -16z"/>
<path d="M3870 2612 c0 -22 140 -141 206 -173 68 -33 71 -34 194 -33 137 1
146 2 181 26 21 15 22 17 5 17 -10 1 -46 14 -80 30 -144 68 -178 83 -189 85
-7 1 -34 9 -62 18 -83 28 -255 48 -255 30z"/>
<path d="M2780 2579 c-19 -5 -45 -10 -56 -13 -34 -7 -167 -71 -194 -94 -20
-16 -22 -22 -10 -25 8 -3 40 -13 70 -22 30 -9 60 -21 67 -27 11 -9 -29 -52
-137 -147 -40 -35 -146 -93 -205 -111 -89 -28 -59 -32 185 -25 242 6 262 7
350 20 101 16 281 90 370 154 40 29 130 120 130 132 0 9 -59 44 -91 54 -13 4
-57 23 -97 41 -140 64 -283 88 -382 63z"/>
<path d="M3450 2556 c0 -14 121 -130 170 -163 66 -43 138 -71 206 -79 123 -14
225 -4 285 27 45 22 47 26 17 27 -13 0 -71 23 -131 51 -107 52 -224 100 -262
107 -11 2 -51 10 -89 18 -38 8 -73 13 -78 10 -4 -3 -8 -2 -8 3 0 4 -25 8 -55
8 -30 0 -55 -4 -55 -9z"/>
<path d="M3440 2305 c-25 -7 -63 -20 -85 -30 -37 -16 -38 -18 -20 -31 10 -8
25 -14 32 -14 8 0 28 -7 44 -16 l30 -15 -98 -78 c-97 -77 -142 -100 -211 -107
-55 -5 -58 -21 -6 -30 279 -51 453 -36 646 55 117 55 153 62 224 47 52 -11
162 -75 286 -165 10 -8 21 -11 24 -8 10 10 -141 151 -214 200 -77 52 -255 140
-330 163 -134 41 -246 52 -322 29z"/>
<path d="M4975 2135 c-22 -15 -60 -52 -85 -82 -24 -31 -46 -51 -48 -45 -4 12
-52 -5 -52 -18 0 -14 -98 -109 -204 -198 -15 -12 -68 -59 -119 -103 l-92 -81
85 82 c302 291 306 294 283 298 -39 6 -83 -27 -207 -156 -66 -70 -143 -148
-170 -173 -43 -41 -48 -50 -37 -63 10 -11 18 -13 31 -6 15 8 17 6 13 -10 -4
-16 0 -20 21 -20 14 0 26 -5 26 -10 0 -6 11 -15 24 -22 23 -10 30 -5 94 58
327 326 392 378 494 392 35 4 42 10 63 52 47 93 40 116 -36 126 -37 5 -51 1
-84 -21z m-219 -253 c-17 -16 -18 -16 -5 5 7 12 15 20 18 17 3 -2 -3 -12 -13
-22z m-76 -85 c-62 -58 -115 -106 -186 -166 -16 -14 4 6 45 46 127 121 195
183 201 183 3 0 -24 -28 -60 -63z"/>
<path d="M4965 1937 c-36 -17 -103 -66 -146 -107 -8 -8 -38 -35 -65 -60 -166
-150 -274 -253 -274 -261 0 -4 8 -16 19 -26 23 -22 34 -57 26 -82 -6 -20 -86
-67 -128 -75 -14 -2 -30 -7 -35 -10 -9 -5 -152 -44 -192 -52 -14 -3 -47 -12
-75 -19 -27 -8 -68 -17 -90 -20 -22 -4 -47 -8 -55 -10 -24 -6 -152 -19 -192
-20 -21 0 -38 -3 -38 -6 0 -3 -10 -5 -22 -4 -13 1 -29 -2 -35 -8 -7 -5 -13 -7
-13 -5 0 3 -39 -4 -87 -14 -49 -11 -97 -21 -108 -23 -11 -2 -42 -10 -70 -19
-27 -8 -51 -14 -52 -12 -5 4 103 42 147 52 45 10 42 9 130 33 41 11 95 22 120
26 25 3 52 8 60 10 8 2 40 7 70 10 30 3 66 8 80 11 14 2 39 6 55 9 44 6 57 9
199 50 70 20 133 38 140 39 22 4 61 17 97 33 91 38 59 111 -78 175 -57 27 -78
31 -162 34 -53 1 -130 -4 -171 -11 -41 -7 -100 -16 -131 -19 -31 -4 -67 -9
-80 -11 -103 -20 -140 -25 -190 -25 -32 0 -70 5 -86 12 -15 6 -31 12 -35 12
-10 1 -166 105 -182 122 -35 34 -192 106 -284 128 -104 26 -110 27 -247 28
-195 2 -379 -44 -519 -130 -78 -47 -214 -185 -367 -372 -68 -84 -132 -162
-142 -173 -9 -11 -17 -23 -17 -27 0 -7 29 -38 56 -60 74 -58 132 -107 150
-124 12 -12 34 -30 48 -40 16 -12 25 -25 21 -34 -4 -12 -2 -12 8 -4 22 18 29
1 10 -22 -10 -12 -11 -15 -3 -8 8 6 20 12 28 12 20 0 44 -28 36 -41 -4 -8 -3
-9 4 -5 7 4 12 2 12 -5 0 -7 3 -10 6 -6 4 3 21 -5 40 -19 23 -18 31 -32 29
-46 -3 -11 -1 -18 2 -14 4 4 13 -4 20 -16 l14 -23 -6 23 c-4 13 -2 22 4 22 6
0 11 -4 11 -8 0 -5 11 -14 24 -22 16 -8 22 -18 19 -29 -4 -9 -3 -13 2 -9 4 4
16 3 27 -3 16 -9 17 -13 6 -27 -12 -15 -11 -16 5 -3 16 13 22 8 17 -14 -1 -5
10 1 24 14 30 29 36 43 6 16 -33 -30 -25 7 9 44 15 16 26 33 23 36 -3 3 0 5 6
5 7 0 12 7 12 16 0 8 5 12 10 9 6 -3 10 1 10 10 0 11 5 15 15 11 40 -16 50
-17 30 -4 -19 13 -35 45 -16 34 5 -3 12 1 15 10 3 8 11 12 17 8 7 -4 9 -3 6 3
-8 13 31 45 45 37 6 -4 8 -3 5 3 -4 6 1 19 9 29 9 10 13 12 9 4 -4 -8 1 -6 9
4 9 11 16 16 16 12 0 -4 7 0 17 9 9 10 26 15 39 12 14 -2 21 0 17 6 -4 6 2 8
15 5 12 -4 22 -1 22 4 0 7 5 7 13 -1 10 -8 17 -7 25 1 9 9 12 9 12 -2 0 -13 2
-13 10 0 9 13 11 13 20 0 5 -8 10 -10 10 -4 0 15 100 14 100 -1 0 -7 3 -7 8 0
4 6 14 10 22 10 8 0 18 -4 22 -10 5 -6 8 -5 8 3 0 8 5 10 13 5 6 -4 23 -8 37
-8 14 0 31 -4 39 -9 8 -5 12 -5 8 0 -3 5 14 7 39 5 24 -1 44 -6 44 -10 0 -4
14 -6 30 -5 17 1 30 -2 30 -6 0 -4 10 -6 22 -2 16 4 19 2 13 -9 -8 -12 -6 -12
8 -1 9 8 21 11 26 7 6 -3 32 -8 58 -11 27 -3 59 -8 73 -11 42 -10 54 -12 83
-15 19 -2 26 -7 22 -17 -4 -11 -2 -11 9 -2 14 12 49 5 41 -8 -2 -4 2 -8 10 -8
8 0 12 4 9 9 -5 8 26 5 64 -6 49 -15 132 -15 167 0 20 8 34 11 31 6 -3 -5 1
-9 9 -9 8 0 12 4 9 9 -7 11 64 40 78 32 7 -4 8 -3 4 4 -6 11 6 16 27 13 4 0 7
3 7 8 0 10 90 48 103 43 4 -1 7 2 7 6 0 12 49 34 60 27 5 -3 12 0 17 7 9 14
63 42 101 53 12 3 22 11 22 16 0 5 3 8 8 7 4 -1 17 3 30 10 12 7 22 9 22 5 0
-4 4 -3 8 3 4 6 43 28 87 48 220 104 215 100 335 274 137 199 239 334 325 430
48 53 58 77 45 103 -24 43 -93 50 -165 16z m-2755 -1217 c0 -5 -2 -10 -4 -10
-3 0 -8 5 -11 10 -3 6 -1 10 4 10 6 0 11 -4 11 -10z"/>
<path d="M4110 929 c0 -5 5 -7 10 -4 6 3 10 8 10 11 0 2 -4 4 -10 4 -5 0 -10
-5 -10 -11z"/>
<path d="M4176 928 c3 -5 10 -6 15 -3 13 9 11 12 -6 12 -8 0 -12 -4 -9 -9z"/>
<path d="M4055 910 c-3 -5 -1 -10 4 -10 6 0 11 5 11 10 0 6 -2 10 -4 10 -3 0
-8 -4 -11 -10z"/>
<path d="M2633 895 c0 -8 4 -12 9 -9 5 3 6 10 3 15 -9 13 -12 11 -12 -6z"/>
<path d="M2755 899 c-4 -6 -5 -12 -2 -15 2 -3 7 2 10 11 7 17 1 20 -8 4z"/>
<path d="M1886 888 c3 -5 10 -6 15 -3 13 9 11 12 -6 12 -8 0 -12 -4 -9 -9z"/>
<path d="M4159 883 c-13 -16 -12 -17 4 -4 9 7 17 15 17 17 0 8 -8 3 -21 -13z"/>
<path d="M2695 870 c3 -5 8 -10 11 -10 2 0 4 5 4 10 0 6 -5 10 -11 10 -5 0 -7
-4 -4 -10z"/>
<path d="M2814 872 c4 -3 14 -7 22 -8 9 -1 13 0 10 4 -4 3 -14 7 -22 8 -9 1
-13 0 -10 -4z"/>
<path d="M2975 871 c-3 -5 -2 -12 3 -15 5 -3 9 1 9 9 0 17 -3 19 -12 6z"/>
<path d="M2667 849 c7 -7 15 -10 18 -7 3 3 -2 9 -12 12 -14 6 -15 5 -6 -5z"/>
<path d="M2910 856 c0 -2 7 -7 16 -10 8 -3 12 -2 9 4 -6 10 -25 14 -25 6z"/>
<path d="M3090 850 c0 -5 5 -10 11 -10 5 0 7 5 4 10 -3 6 -8 10 -11 10 -2 0
-4 -4 -4 -10z"/>
<path d="M4030 849 c0 -5 5 -7 10 -4 6 3 10 8 10 11 0 2 -4 4 -10 4 -5 0 -10
-5 -10 -11z"/>
<path d="M2715 841 c-3 -5 -2 -12 3 -15 5 -3 9 1 9 9 0 17 -3 19 -12 6z"/>
<path d="M3215 841 c-3 -5 -2 -12 3 -15 5 -3 9 1 9 9 0 17 -3 19 -12 6z"/>
<path d="M3879 848 c-5 -18 -6 -38 -1 -34 7 8 12 36 6 36 -2 0 -4 -1 -5 -2z"/>
<path d="M3174 826 c1 -8 5 -18 8 -22 4 -3 5 1 4 10 -1 8 -5 18 -8 22 -4 3 -5
-1 -4 -10z"/>
<path d="M2044 808 c-13 -16 -14 -19 -2 -10 13 10 17 10 21 0 3 -7 4 -3 4 10
-1 12 -2 22 -3 22 0 0 -9 -10 -20 -22z"/>
<path d="M3510 811 c0 -6 4 -12 8 -15 5 -3 9 1 9 9 0 8 -4 15 -9 15 -4 0 -8
-4 -8 -9z"/>
<path d="M3590 816 c0 -2 7 -7 16 -10 8 -3 12 -2 9 4 -6 10 -25 14 -25 6z"/>
<path d="M3779 803 c-13 -16 -12 -17 4 -4 16 13 21 21 13 21 -2 0 -10 -8 -17
-17z"/>
<path d="M2635 801 c-3 -5 -2 -12 3 -15 5 -3 9 1 9 9 0 17 -3 19 -12 6z"/>
<path d="M3330 790 c0 -5 5 -10 11 -10 5 0 7 5 4 10 -3 6 -8 10 -11 10 -2 0
-4 -4 -4 -10z"/>
<path d="M3547 789 c7 -9 10 -19 6 -22 -3 -4 -1 -7 5 -7 17 0 15 16 -5 31 -16
12 -17 12 -6 -2z"/>
<path d="M3677 778 c19 -21 31 -25 14 -5 -6 8 -9 16 -6 19 3 2 -2 5 -10 5 -13
0 -13 -3 2 -19z"/>
<path d="M3711 783 c7 -12 15 -20 18 -17 3 2 -3 12 -13 22 -17 16 -18 16 -5
-5z"/>
<path d="M2480 781 c0 -6 4 -13 10 -16 6 -3 7 1 4 9 -7 18 -14 21 -14 7z"/>
<path d="M3616 777 c3 -10 9 -15 12 -12 3 3 0 11 -7 18 -10 9 -11 8 -5 -6z"/>
<path d="M3034 772 c4 -3 14 -7 22 -8 9 -1 13 0 10 4 -4 3 -14 7 -22 8 -9 1
-13 0 -10 -4z"/>
<path d="M3650 771 c0 -6 4 -13 10 -16 6 -3 7 1 4 9 -7 18 -14 21 -14 7z"/>
<path d="M2115 760 c-3 -6 1 -7 9 -4 18 7 21 14 7 14 -6 0 -13 -4 -16 -10z"/>
<path d="M2511 757 c-8 -10 -7 -14 2 -14 8 0 14 6 14 14 0 7 -1 13 -2 13 -2 0
-8 -6 -14 -13z"/>
<path d="M3435 750 c-3 -5 -1 -10 4 -10 6 0 11 5 11 10 0 6 -2 10 -4 10 -3 0
-8 -4 -11 -10z"/>
<path d="M2076 723 c-6 -14 -5 -15 5 -6 7 7 10 15 7 18 -3 3 -9 -2 -12 -12z"/>
<path d="M2106 731 c9 -9 34 -9 34 -1 0 5 -9 8 -20 7 -10 -1 -17 -3 -14 -6z"/>
<path d="M2440 726 c0 -8 4 -17 9 -20 5 -4 7 3 4 14 -6 23 -13 26 -13 6z"/>
<path d="M3866 732 c-3 -5 1 -9 9 -9 8 0 12 4 9 9 -3 4 -7 8 -9 8 -2 0 -6 -4
-9 -8z"/>
<path d="M2150 713 c0 -5 5 -15 10 -23 7 -12 9 -10 7 8 -1 19 -17 33 -17 15z"/>
<path d="M2506 709 c2 -4 13 -7 24 -6 23 2 17 10 -10 12 -10 1 -17 -2 -14 -6z"/>
<path d="M2230 670 c0 -6 7 -10 15 -10 8 0 15 2 15 4 0 2 -7 6 -15 10 -8 3
-15 1 -15 -4z"/>
<path d="M2428 673 c6 -3 10 -9 7 -13 -3 -5 0 -12 7 -16 7 -4 10 -4 6 1 -4 4
-4 13 2 19 6 8 2 12 -13 13 -12 0 -16 -1 -9 -4z"/>
<path d="M2146 648 c3 -5 10 -6 15 -3 13 9 11 12 -6 12 -8 0 -12 -4 -9 -9z"/>
<path d="M2210 651 c0 -6 4 -13 10 -16 6 -3 7 1 4 9 -7 18 -14 21 -14 7z"/>
<path d="M2184 612 c4 -3 14 -7 22 -8 9 -1 13 0 10 4 -4 3 -14 7 -22 8 -9 1
-13 0 -10 -4z"/>
<path d="M2390 595 c0 -7 30 -13 34 -7 3 4 -4 9 -15 9 -10 1 -19 0 -19 -2z"/>
</g>
</svg>
